<mxfile host="app.diagrams.net" modified="2022-09-03T16:49:14.499Z" agent="5.0 (Windows NT 10.0; Win64; x64) AppleWebKit/537.36 (KHTML, like Gecko) Chrome/104.0.5112.102 Safari/537.36 Edg/104.0.1293.70" etag="xvanIhdGoyxGuhrvsyBC" version="20.2.7" type="github">
  <diagram id="IHZXXqQyOVkhnVFK2XKT" name="Page-1">
    <mxGraphModel dx="782" dy="1560" grid="1" gridSize="10" guides="1" tooltips="1" connect="1" arrows="1" fold="1" page="1" pageScale="1" pageWidth="850" pageHeight="1100" math="0" shadow="0">
      <root>
        <mxCell id="0" />
        <mxCell id="1" parent="0" />
        <mxCell id="i_R3NcSOlQapOZdnDr_--1" value="" style="shape=table;childLayout=tableLayout;startSize=0;fillColor=none;collapsible=0;recursiveResize=0;expand=0;" vertex="1" parent="1">
          <mxGeometry y="-190" width="830" height="1010" as="geometry" />
        </mxCell>
        <mxCell id="i_R3NcSOlQapOZdnDr_--2" value="" style="shape=tableRow;horizontal=0;swimlaneHead=0;swimlaneBody=0;top=0;left=0;bottom=0;right=0;dropTarget=0;fontStyle=0;fillColor=none;points=[[0,0.5],[1,0.5]];portConstraint=eastwest;startSize=40;collapsible=0;recursiveResize=0;expand=0;" vertex="1" parent="i_R3NcSOlQapOZdnDr_--1">
          <mxGeometry width="830" height="1010" as="geometry" />
        </mxCell>
        <mxCell id="i_R3NcSOlQapOZdnDr_--3" value="User" style="swimlane;swimlaneHead=0;swimlaneBody=0;fontStyle=0;connectable=0;fillColor=none;startSize=40;collapsible=0;recursiveResize=0;expand=0;" vertex="1" parent="i_R3NcSOlQapOZdnDr_--2">
          <mxGeometry x="40" width="460" height="1010" as="geometry">
            <mxRectangle width="460" height="1010" as="alternateBounds" />
          </mxGeometry>
        </mxCell>
        <mxCell id="GNDsyc3579FqNXEZv605-1" value="" style="ellipse;fillColor=#000000;strokeColor=none;" parent="i_R3NcSOlQapOZdnDr_--3" vertex="1">
          <mxGeometry x="212.5" y="70" width="30" height="30" as="geometry" />
        </mxCell>
        <mxCell id="i_R3NcSOlQapOZdnDr_--15" value="" style="edgeStyle=orthogonalEdgeStyle;rounded=0;orthogonalLoop=1;jettySize=auto;html=1;" edge="1" parent="i_R3NcSOlQapOZdnDr_--3" source="GNDsyc3579FqNXEZv605-3" target="i_R3NcSOlQapOZdnDr_--11">
          <mxGeometry relative="1" as="geometry" />
        </mxCell>
        <mxCell id="GNDsyc3579FqNXEZv605-3" value="Search Restaurant" style="html=1;dashed=0;whitespace=wrap;" parent="i_R3NcSOlQapOZdnDr_--3" vertex="1">
          <mxGeometry x="170" y="170" width="115" height="50" as="geometry" />
        </mxCell>
        <mxCell id="GNDsyc3579FqNXEZv605-5" value="" style="edgeStyle=orthogonalEdgeStyle;rounded=0;orthogonalLoop=1;jettySize=auto;html=1;entryX=0.5;entryY=0;entryDx=0;entryDy=0;" parent="i_R3NcSOlQapOZdnDr_--3" source="GNDsyc3579FqNXEZv605-1" target="GNDsyc3579FqNXEZv605-3" edge="1">
          <mxGeometry relative="1" as="geometry">
            <mxPoint x="265" y="300" as="targetPoint" />
          </mxGeometry>
        </mxCell>
        <mxCell id="i_R3NcSOlQapOZdnDr_--11" value="" style="shape=rhombus;html=1;verticalLabelPosition=bottom;verticalAlignment=top;" vertex="1" parent="i_R3NcSOlQapOZdnDr_--3">
          <mxGeometry x="207.5" y="270" width="40" height="40" as="geometry" />
        </mxCell>
        <mxCell id="i_R3NcSOlQapOZdnDr_--13" value="Restaurant available" style="edgeStyle=elbowEdgeStyle;html=1;elbow=vertical;verticalAlign=bottom;endArrow=open;rounded=0;labelBackgroundColor=none;endSize=12;entryX=0.5;entryY=0;entryDx=0;entryDy=0;" edge="1" source="i_R3NcSOlQapOZdnDr_--11" parent="i_R3NcSOlQapOZdnDr_--3" target="i_R3NcSOlQapOZdnDr_--17">
          <mxGeometry x="0.3333" y="63" relative="1" as="geometry">
            <mxPoint x="330" y="290" as="targetPoint" />
            <mxPoint as="offset" />
          </mxGeometry>
        </mxCell>
        <mxCell id="i_R3NcSOlQapOZdnDr_--14" value="Restaurant could not be found" style="edgeStyle=elbowEdgeStyle;html=1;elbow=vertical;verticalAlign=bottom;endArrow=open;rounded=0;labelBackgroundColor=none;endSize=12;entryX=1;entryY=0.5;entryDx=0;entryDy=0;" edge="1" source="i_R3NcSOlQapOZdnDr_--11" parent="i_R3NcSOlQapOZdnDr_--3" target="i_R3NcSOlQapOZdnDr_--16">
          <mxGeometry x="-0.0182" y="-10" relative="1" as="geometry">
            <mxPoint x="127.5" y="290" as="targetPoint" />
            <mxPoint as="offset" />
          </mxGeometry>
        </mxCell>
        <mxCell id="i_R3NcSOlQapOZdnDr_--16" value="" style="shape=sumEllipse;perimeter=ellipsePerimeter;whiteSpace=wrap;html=1;backgroundOutline=1;" vertex="1" parent="i_R3NcSOlQapOZdnDr_--3">
          <mxGeometry x="40" y="275" width="30" height="30" as="geometry" />
        </mxCell>
        <mxCell id="i_R3NcSOlQapOZdnDr_--18" value="" style="edgeStyle=orthogonalEdgeStyle;rounded=0;orthogonalLoop=1;jettySize=auto;html=1;" edge="1" parent="i_R3NcSOlQapOZdnDr_--3" source="i_R3NcSOlQapOZdnDr_--17" target="GNDsyc3579FqNXEZv605-9">
          <mxGeometry relative="1" as="geometry" />
        </mxCell>
        <mxCell id="i_R3NcSOlQapOZdnDr_--17" value="View Restaurant" style="html=1;dashed=0;whitespace=wrap;" vertex="1" parent="i_R3NcSOlQapOZdnDr_--3">
          <mxGeometry x="177.5" y="370" width="100" height="50" as="geometry" />
        </mxCell>
        <mxCell id="i_R3NcSOlQapOZdnDr_--20" value="" style="edgeStyle=orthogonalEdgeStyle;rounded=0;orthogonalLoop=1;jettySize=auto;html=1;" edge="1" parent="i_R3NcSOlQapOZdnDr_--3" source="GNDsyc3579FqNXEZv605-9" target="i_R3NcSOlQapOZdnDr_--19">
          <mxGeometry relative="1" as="geometry" />
        </mxCell>
        <mxCell id="GNDsyc3579FqNXEZv605-9" value="View menu" style="html=1;dashed=0;whitespace=wrap;" parent="i_R3NcSOlQapOZdnDr_--3" vertex="1">
          <mxGeometry x="177.5" y="480" width="100" height="50" as="geometry" />
        </mxCell>
        <mxCell id="i_R3NcSOlQapOZdnDr_--22" value="" style="edgeStyle=orthogonalEdgeStyle;rounded=0;orthogonalLoop=1;jettySize=auto;html=1;" edge="1" parent="i_R3NcSOlQapOZdnDr_--3" source="i_R3NcSOlQapOZdnDr_--19" target="i_R3NcSOlQapOZdnDr_--21">
          <mxGeometry relative="1" as="geometry" />
        </mxCell>
        <mxCell id="i_R3NcSOlQapOZdnDr_--19" value="Add items from menu" style="html=1;dashed=0;whitespace=wrap;" vertex="1" parent="i_R3NcSOlQapOZdnDr_--3">
          <mxGeometry x="162.5" y="580" width="130" height="50" as="geometry" />
        </mxCell>
        <mxCell id="i_R3NcSOlQapOZdnDr_--23" value="" style="edgeStyle=orthogonalEdgeStyle;rounded=0;orthogonalLoop=1;jettySize=auto;html=1;" edge="1" parent="i_R3NcSOlQapOZdnDr_--3" source="i_R3NcSOlQapOZdnDr_--21" target="GNDsyc3579FqNXEZv605-18">
          <mxGeometry relative="1" as="geometry" />
        </mxCell>
        <mxCell id="i_R3NcSOlQapOZdnDr_--21" value="View total cost" style="html=1;dashed=0;whitespace=wrap;" vertex="1" parent="i_R3NcSOlQapOZdnDr_--3">
          <mxGeometry x="177.5" y="680" width="100" height="50" as="geometry" />
        </mxCell>
        <mxCell id="GNDsyc3579FqNXEZv605-18" value="" style="ellipse;html=1;shape=endState;fillColor=#000000;strokeColor=#000000;" parent="i_R3NcSOlQapOZdnDr_--3" vertex="1">
          <mxGeometry x="212.5" y="800" width="30" height="30" as="geometry" />
        </mxCell>
        <mxCell id="i_R3NcSOlQapOZdnDr_--4" value="Admin" style="swimlane;swimlaneHead=0;swimlaneBody=0;fontStyle=0;connectable=0;fillColor=none;startSize=40;collapsible=0;recursiveResize=0;expand=0;" vertex="1" parent="i_R3NcSOlQapOZdnDr_--2">
          <mxGeometry x="500" width="330" height="1010" as="geometry">
            <mxRectangle width="330" height="1010" as="alternateBounds" />
          </mxGeometry>
        </mxCell>
        <mxCell id="i_R3NcSOlQapOZdnDr_--34" value="" style="edgeStyle=orthogonalEdgeStyle;rounded=0;orthogonalLoop=1;jettySize=auto;html=1;" edge="1" parent="i_R3NcSOlQapOZdnDr_--4" source="i_R3NcSOlQapOZdnDr_--25" target="i_R3NcSOlQapOZdnDr_--26">
          <mxGeometry relative="1" as="geometry" />
        </mxCell>
        <mxCell id="i_R3NcSOlQapOZdnDr_--25" value="Add Restaurant" style="html=1;dashed=0;whitespace=wrap;" vertex="1" parent="i_R3NcSOlQapOZdnDr_--4">
          <mxGeometry x="125" y="250" width="100" height="50" as="geometry" />
        </mxCell>
        <mxCell id="i_R3NcSOlQapOZdnDr_--36" value="" style="edgeStyle=orthogonalEdgeStyle;rounded=0;orthogonalLoop=1;jettySize=auto;html=1;" edge="1" parent="i_R3NcSOlQapOZdnDr_--4" source="i_R3NcSOlQapOZdnDr_--26">
          <mxGeometry relative="1" as="geometry">
            <mxPoint x="20" y="385" as="targetPoint" />
          </mxGeometry>
        </mxCell>
        <mxCell id="i_R3NcSOlQapOZdnDr_--26" value="Update Restaurant" style="html=1;dashed=0;whitespace=wrap;" vertex="1" parent="i_R3NcSOlQapOZdnDr_--4">
          <mxGeometry x="117.5" y="360" width="115" height="50" as="geometry" />
        </mxCell>
        <mxCell id="i_R3NcSOlQapOZdnDr_--27" value="Delete Restaurant" style="html=1;dashed=0;whitespace=wrap;" vertex="1" parent="i_R3NcSOlQapOZdnDr_--4">
          <mxGeometry x="120" y="460" width="110" height="50" as="geometry" />
        </mxCell>
        <mxCell id="i_R3NcSOlQapOZdnDr_--28" value="Update Menu" style="html=1;dashed=0;whitespace=wrap;" vertex="1" parent="i_R3NcSOlQapOZdnDr_--4">
          <mxGeometry x="120" y="580" width="110" height="50" as="geometry" />
        </mxCell>
        <mxCell id="i_R3NcSOlQapOZdnDr_--33" value="" style="edgeStyle=orthogonalEdgeStyle;rounded=0;orthogonalLoop=1;jettySize=auto;html=1;entryX=0.5;entryY=0;entryDx=0;entryDy=0;" edge="1" parent="i_R3NcSOlQapOZdnDr_--4" source="i_R3NcSOlQapOZdnDr_--31" target="i_R3NcSOlQapOZdnDr_--25">
          <mxGeometry relative="1" as="geometry">
            <mxPoint x="175" y="165" as="targetPoint" />
          </mxGeometry>
        </mxCell>
        <mxCell id="i_R3NcSOlQapOZdnDr_--31" value="" style="ellipse;fillColor=#000000;strokeColor=none;" vertex="1" parent="i_R3NcSOlQapOZdnDr_--4">
          <mxGeometry x="160" y="70" width="30" height="30" as="geometry" />
        </mxCell>
      </root>
    </mxGraphModel>
  </diagram>
</mxfile>
